<svg width="320" height="236" viewBox="0 0 320 236" fill="none" xmlns="http://www.w3.org/2000/svg">
<path d="M205.729 161.303C214.023 146.428 225.877 141.495 242.495 138.012C261.408 134.048 277.409 134.206 290.95 148.048C314.429 172.049 280.812 219.854 247.397 222.277C229.981 223.539 215.562 220.483 205.729 205.992C195.943 191.57 197.239 176.53 205.729 161.303Z" fill="#242424"/>
<path d="M149.931 15.7708C120.744 35.4227 137.925 69.7572 136.987 104.927C136.774 112.927 138.975 117.667 136.987 125.419C132.28 143.772 109.535 140.206 99.5942 156.336C83.3894 182.632 69.13 240.541 99.5942 235.427C119.121 232.149 115.772 207.021 133.032 197.32C148.899 188.401 169.945 176.948 178.694 187.973C187.443 198.997 192.15 216.44 208.896 219.249C236.546 223.888 226.994 173.832 234.065 152.022C241.136 130.212 320.629 154.897 319.996 118.948C319.498 90.5966 293.18 76.5646 265.345 71.1342C233.512 64.9236 186.485 123.142 189.481 104.927C192.477 86.7127 188.787 65.4197 199.189 43.4525C204.771 31.6626 216.817 28.7717 217.885 15.7708C220.057 -10.6747 171.943 0.949532 149.931 15.7708Z" fill="#D4F46F"/>
<path d="M0 130.623C-1.45115e-05 79.1002 48.4472 33.8761 98.7166 42.8436C120.199 46.6759 122.112 68.7485 131.622 88.4505C146.268 118.792 164.472 123.585 151.594 152.377C138.367 181.948 108.381 174.676 76.0822 173.94C45.5778 173.245 8.62188e-06 161.234 0 130.623Z" fill="#242424"/>
</svg>
